<svg id="Layer_1" data-name="Layer 1" xmlns="http://www.w3.org/2000/svg" xmlns:xlink="http://www.w3.org/1999/xlink" viewBox="0 0 1064 133"><defs><style>.cls-1{fill:url(#linear-gradient);}.cls-2{fill:url(#linear-gradient-2);}.cls-3{fill:url(#linear-gradient-3);}.cls-4{fill:url(#linear-gradient-4);}.cls-5{fill:url(#linear-gradient-5);}.cls-6{fill:url(#linear-gradient-6);}.cls-7{fill:url(#linear-gradient-7);}.cls-8{fill:url(#linear-gradient-8);}.cls-9{fill:url(#linear-gradient-9);}.cls-10{fill:#424143;}</style><linearGradient id="linear-gradient" x1="2.33" y1="31.88" x2="63.28" y2="92.83" gradientUnits="userSpaceOnUse"><stop offset="0" stop-color="#49bfaf"/><stop offset="0.25" stop-color="#00a98b"/><stop offset="0.5" stop-color="#00a589"/><stop offset="0.75" stop-color="#00a187"/><stop offset="1" stop-color="#007f7b"/></linearGradient><linearGradient id="linear-gradient-2" x1="72.72" y1="24.95" x2="147.22" y2="99.45" xlink:href="#linear-gradient"/><linearGradient id="linear-gradient-3" x1="148.36" y1="35.79" x2="193.36" y2="80.8" xlink:href="#linear-gradient"/><linearGradient id="linear-gradient-4" x1="219.14" y1="38.93" x2="276.3" y2="96.09" xlink:href="#linear-gradient"/><linearGradient id="linear-gradient-5" x1="281.58" y1="41.56" x2="347.51" y2="107.5" xlink:href="#linear-gradient"/><linearGradient id="linear-gradient-6" x1="444.44" y1="24.44" x2="502.69" y2="82.69" xlink:href="#linear-gradient"/><linearGradient id="linear-gradient-7" x1="486.68" y1="35.04" x2="558.61" y2="106.97" xlink:href="#linear-gradient"/><linearGradient id="linear-gradient-8" x1="566.09" y1="26.91" x2="630.66" y2="91.47" xlink:href="#linear-gradient"/><linearGradient id="linear-gradient-9" x1="391.85" y1="38.61" x2="442.28" y2="94.32" gradientUnits="userSpaceOnUse"><stop offset="0" stop-color="#8e3d3d"/><stop offset="0.69" stop-color="#e62328"/><stop offset="1" stop-color="#ed2027"/></linearGradient></defs><path class="cls-1" d="M66.32,93.65c-8.37,8.19-17.17,11.41-27.88,11.41C17.46,105.06,0,92.48,0,66.88S17.46,28.71,38.44,28.71c10.27,0,18.19,2.92,26.12,10.67L53.26,51.23a22,22,0,0,0-14.53-5.7c-12,0-20.83,8.77-20.83,21.35C17.9,80.63,27.29,88,38.44,88c5.72,0,11.45-1.61,15.85-6Z"/><path class="cls-2" d="M127.65,30.75h17.16v72.12H127.94l-.88-10.53c-4.11,8.48-15.41,12.58-23.48,12.72-21.42.15-37.26-13-37.26-38.32C66.32,41.87,82.9,28.85,104,29c9.69,0,18.93,4.53,23,11.7Zm-43.43,36c0,13.75,9.53,21.94,21.42,21.94,28.17,0,28.17-43.74,0-43.74C93.75,44.94,84.22,53,84.22,66.74Z"/><path class="cls-3" d="M170,30.75l1.33,8.34c5.57-8.92,13-10.24,20.39-10.24s14.67,2.93,18.63,6.88l-8.07,15.5a17.92,17.92,0,0,0-12.91-4.68c-9.39,0-18,5-18,18.29v38H153.4V30.75Z"/><path class="cls-4" d="M226.94,73.17c1.17,8.93,8.95,15.36,21.56,15.36,6.61,0,15.26-2.48,19.37-6.73l11.44,11.27c-7.62,7.9-20.1,11.7-31.1,11.7-24.94,0-39.76-15.36-39.76-38.47,0-21.94,15-37.74,38.44-37.74,24.21,0,39.32,14.92,36.53,44.61ZM266.26,58.4c-1.18-9.36-8.51-14-18.78-14-9.69,0-17.61,4.68-20.25,14Z"/><path class="cls-5" d="M292.39,133V30.75h16.72l1.18,10c5.57-8,15.26-11.55,23.47-11.55,22.31,0,37.12,16.52,37.12,37.73s-13.35,37.74-36.53,37.74c-7.63,0-18.93-2.34-24.06-10.24V133ZM353,66.88c0-11.26-7.63-20.47-20.54-20.47S311.9,55.62,311.9,66.88s8.37,20.48,20.54,20.48S353,78.15,353,66.88Z"/><path class="cls-6" d="M484.13,10.42c0,13.9-21.13,13.9-21.13,0S484.13-3.47,484.13,10.42Zm-19.51,20v72.41h17.9V30.46Z"/><path class="cls-7" d="M544.82,102.87V65.13c0-11-6-19.31-17.46-19.31-11,0-18.49,9.22-18.49,20.19v36.86H491.12V30.61h16l1.17,9.8c7.34-7.17,14.68-10.83,23.77-10.83,17,0,30.67,12.73,30.67,35.4v37.89Z"/><path class="cls-8" d="M598.58,10.42V30.9h19.95V46.26h-20.1V77.42c0,6.87,3.81,10.23,9.39,10.23a20.48,20.48,0,0,0,8.66-2.19l5,15.21a39.89,39.89,0,0,1-14.81,3.07c-15.7.59-26-8.33-26-26.32V46.26h-13.5V30.9h13.5V12.32Z"/><path class="cls-9" d="M455.15,66.88a37.71,37.71,0,1,1-37.71-37.59A37.65,37.65,0,0,1,455.15,66.88ZM408.21,56.52h0Zm17.62,17.61h0Zm-3.44,22.45a4,4,0,0,0,4.2-3.86V41.05a4,4,0,0,0-4.2-3.86h-10a4,4,0,0,0-4.2,3.86V92.72a4,4,0,0,0,4.2,3.86Zm21-40H426.59V46.08c0,5.77-7.88,10.45-17.62,10.45H391.53a3.86,3.86,0,0,0-3.87,3.86v9.88a3.86,3.86,0,0,0,3.87,3.86h16.68V84.58c0-5.77,7.89-10.45,17.62-10.45h17.53a3.87,3.87,0,0,0,3.87-3.86V60.39A3.87,3.87,0,0,0,443.36,56.53Z"/><path class="cls-10" d="M711.57,19.58c16.2,0,30.17,8.32,36.09,23.82H732.35C728.22,35,720.84,31,711.57,31,696.15,31,685,42.15,685,60.05s11.17,29.18,26.59,29.18c9.27,0,16.65-4,20.78-12.42h15.31c-5.92,15.5-19.89,23.71-36.09,23.71-21.9,0-39.66-16.65-39.66-40.47S689.67,19.58,711.57,19.58Z"/><path class="cls-10" d="M770.78,20.61V89.35H797V99.83H758V20.61Z"/><path class="cls-10" d="M803.18,20.61h12.73V99.83H803.18Z"/><path class="cls-10" d="M892,20.49V99.83H879.26L840.94,40.67V99.83H828.2V20.49h12.74l38.32,59.05V20.49Z"/><path class="cls-10" d="M904.28,20.61H917V99.83H904.28Z"/><path class="cls-10" d="M964.72,19.58c16.2,0,30.17,8.32,36.09,23.82H985.5C981.37,35,974,31,964.72,31c-15.42,0-26.59,11.17-26.59,29.07s11.17,29.18,26.59,29.18c9.28,0,16.65-4,20.78-12.42h15.31c-5.92,15.5-19.89,23.71-36.09,23.71-21.9,0-39.66-16.65-39.66-40.47S942.82,19.58,964.72,19.58Z"/><path class="cls-10" d="M1036.78,100.63c-15.53,0-27.48-8.66-27.48-22.68h13.63c.56,6.49,5,11.74,13.85,11.74s14-4.9,14-11.63c0-19.15-41.23-6.73-41.23-35.91,0-13.91,10.84-22.57,26.7-22.57,14.86,0,25.36,8,26.48,21.54h-14.08c-.44-5.35-5-10.25-13.07-10.48-7.37-.23-13.07,3.42-13.07,11,0,17.9,41.11,6.73,41.11,35.69C1063.59,89.23,1054.1,100.63,1036.78,100.63Z"/></svg>