<svg id="Layer_1" data-name="Layer 1" xmlns="http://www.w3.org/2000/svg" xmlns:xlink="http://www.w3.org/1999/xlink" viewBox="0 0 512 512"><defs><style>.cls-1{fill:url(#linear-gradient);}</style><linearGradient id="linear-gradient" x1="81.95" y1="63.73" x2="424.93" y2="442.61" gradientUnits="userSpaceOnUse"><stop offset="0" stop-color="#8e3d3d"/><stop offset="0.69" stop-color="#e62328"/><stop offset="1" stop-color="#ed2027"/></linearGradient></defs><path class="cls-1" d="M512,256c0,141.38-114.62,256-256,256S0,397.38,0,256,114.62,0,256,0,512,114.62,512,256ZM193.35,185.43v.06h5.17C196.8,185.49,195.08,185.47,193.35,185.43ZM312.93,305.35c1.73,0,3.46,0,5.2.06v-.06ZM289.62,458.21c15.74,0,28.51-11.76,28.51-26.25V80.06c0-14.51-12.77-26.27-28.51-26.27H221.84c-15.75,0-28.49,11.76-28.49,26.27V432c0,14.49,12.74,26.25,28.49,26.25ZM432,185.49H318.13V114.35c0,39.29-53.55,71.14-119.61,71.14H80.05a26.26,26.26,0,0,0-26.26,26.28v67.31a26.26,26.26,0,0,0,26.26,26.27h113.3V376.5c0-39.32,53.55-71.15,119.58-71.15H432a26.26,26.26,0,0,0,26.26-26.27V211.77A26.26,26.26,0,0,0,432,185.49Z"/></svg>